<svg width="48" height="46" viewBox="0 0 48 46" fill="none" xmlns="http://www.w3.org/2000/svg">
<path d="M43.9724 24.1444C48.3934 18.6182 48.3934 9.66881 43.9724 4.14267C40.0601 -0.747724 33.8943 -1.38347 29.3952 2.63643L29.27 2.74402C28.1432 3.75144 27.885 5.70759 28.6909 7.10625C29.4969 8.5049 31.0618 8.83744 32.1807 7.83002L32.3059 7.72244C34.8176 5.48264 38.2526 5.83474 40.4279 8.56358C42.8926 11.6445 42.8926 16.6327 40.4279 19.7137L31.6487 30.7073C29.1839 33.7882 25.1933 33.7882 22.7286 30.7073C20.5455 27.9784 20.2638 23.6847 22.0557 20.5548L22.1417 20.3983C22.9477 18.9899 22.6816 17.0337 21.5627 16.0361C20.4438 15.0385 18.871 15.3612 18.0729 16.7599L17.9869 16.9164C14.7631 22.5305 15.2717 30.2378 19.184 35.1282C23.6049 40.6543 30.7645 40.6543 35.1854 35.1282L43.9724 24.1444ZM3.31569 21.8557C-1.10523 27.3818 -1.10523 36.3312 3.31569 41.8574C7.228 46.7478 13.3938 47.3835 17.893 43.3636L18.0182 43.256C19.1449 42.2486 19.4031 40.2924 18.5972 38.8938C17.7912 37.4951 16.2263 37.1626 15.1074 38.17L14.9822 38.2776C12.4705 40.5174 9.03549 40.1653 6.86024 37.4365C4.39548 34.3457 4.39548 29.3575 6.86024 26.2766L15.6395 15.2928C18.1042 12.2118 22.0948 12.2118 24.5595 15.2928C26.7426 18.0216 27.0243 22.3154 25.2325 25.455L25.1464 25.6115C24.3405 27.0199 24.6065 28.9761 25.7254 29.9737C26.8443 30.9714 28.4171 30.6486 29.2152 29.2499L29.3013 29.0934C32.525 23.4695 32.0164 15.7622 28.1041 10.8718C23.6832 5.3457 16.5237 5.3457 12.1027 10.8718L3.31569 21.8557Z" fill="#29536D"/>
</svg>
