<svg width="50" height="50" viewBox="0 0 50 50" fill="none" xmlns="http://www.w3.org/2000/svg">
<path d="M49.9869 24.9463C49.9869 26.7038 48.6845 28.0805 47.2084 28.0805H44.4299L44.4907 43.7219C44.4907 43.9855 44.4733 44.2492 44.4473 44.5128V46.0945C44.4473 48.2523 42.893 50 40.9741 50H39.5849C39.4894 50 39.3939 50 39.2984 49.9902C39.1768 50 39.0552 50 38.9337 50L36.1118 49.9902H34.0279C32.109 49.9902 30.5548 48.2425 30.5548 46.0848V43.7415V37.4927C30.5548 35.7645 29.3131 34.3683 27.7763 34.3683H22.2193C20.6824 34.3683 19.4408 35.7645 19.4408 37.4927V43.7415V46.0848C19.4408 48.2425 17.8866 49.9902 15.9677 49.9902H13.8838H11.114C10.9837 49.9902 10.8535 49.9805 10.7233 49.9707C10.6191 49.9805 10.5149 49.9902 10.4107 49.9902H9.02143C7.10253 49.9902 5.54831 48.2425 5.54831 46.0848V35.1494C5.54831 35.0615 5.54831 34.9639 5.55699 34.876V28.0707H2.7785C1.21559 28.0707 0 26.7038 0 24.9365C0 24.0578 0.260484 23.2767 0.86828 22.5932L23.1223 0.781097C23.7301 0.0976372 24.4247 0 25.0325 0C25.6403 0 26.3349 0.195274 26.8559 0.68346L49.0318 22.603C49.7264 23.2865 50.0737 24.0676 49.9869 24.9463Z" fill="#29536D"/>
</svg>
