<svg width="50" height="50" viewBox="0 0 50 50" fill="none" xmlns="http://www.w3.org/2000/svg">
<g filter="url(#filter0_i_20_38)">
<path d="M10.7143 3.125V6.25H5.35714C2.39955 6.25 0 8.34961 0 10.9375V15.625H50V10.9375C50 8.34961 47.6004 6.25 44.6429 6.25H39.2857V3.125C39.2857 1.39648 37.6897 0 35.7143 0C33.7388 0 32.1429 1.39648 32.1429 3.125V6.25H17.8571V3.125C17.8571 1.39648 16.2612 0 14.2857 0C12.3103 0 10.7143 1.39648 10.7143 3.125ZM50 18.75H0V45.3125C0 47.9004 2.39955 50 5.35714 50H44.6429C47.6004 50 50 47.9004 50 45.3125V18.75Z" fill="#29536D"/>
</g>
<defs>
<filter id="filter0_i_20_38" x="0" y="0" width="50" height="54" filterUnits="userSpaceOnUse" color-interpolation-filters="sRGB">
<feFlood flood-opacity="0" result="BackgroundImageFix"/>
<feBlend mode="normal" in="SourceGraphic" in2="BackgroundImageFix" result="shape"/>
<feColorMatrix in="SourceAlpha" type="matrix" values="0 0 0 0 0 0 0 0 0 0 0 0 0 0 0 0 0 0 127 0" result="hardAlpha"/>
<feOffset dy="4"/>
<feGaussianBlur stdDeviation="2"/>
<feComposite in2="hardAlpha" operator="arithmetic" k2="-1" k3="1"/>
<feColorMatrix type="matrix" values="0 0 0 0 0 0 0 0 0 0 0 0 0 0 0 0 0 0 0.25 0"/>
<feBlend mode="normal" in2="shape" result="effect1_innerShadow_20_38"/>
</filter>
</defs>
</svg>
