<svg width="48" height="46" viewBox="0 0 48 46" fill="none" xmlns="http://www.w3.org/2000/svg">
<path d="M43.9724 24.1443C48.3933 18.6182 48.3933 9.6688 43.9724 4.14266C40.0601 -0.747723 33.8943 -1.38347 29.3951 2.63642L29.2699 2.74401C28.1432 3.75143 27.885 5.70759 28.6909 7.10624C29.4968 8.50489 31.0618 8.83743 32.1807 7.83001L32.3059 7.72243C34.8176 5.48263 38.2526 5.83474 40.4278 8.56357C42.8926 11.6445 42.8926 16.6327 40.4278 19.7136L31.6486 30.7072C29.1839 33.7882 25.1933 33.7882 22.7286 30.7072C20.5455 27.9784 20.2638 23.6846 22.0556 20.5548L22.1417 20.3983C22.9476 18.9899 22.6816 17.0337 21.5627 16.0361C20.4438 15.0384 18.871 15.3612 18.0729 16.7599L17.9868 16.9163C14.7631 22.5305 15.2717 30.2378 19.184 35.1281C23.6049 40.6543 30.7644 40.6543 35.1853 35.1281L43.9724 24.1443ZM3.31568 21.8556C-1.10523 27.3818 -1.10523 36.3312 3.31568 41.8573C7.22799 46.7477 13.3938 47.3835 17.8929 43.3636L18.0181 43.256C19.1449 42.2485 19.4031 40.2924 18.5972 38.8937C17.7912 37.4951 16.2263 37.1625 15.1074 38.17L14.9822 38.2776C12.4705 40.5174 9.03548 40.1652 6.86023 37.4364C4.39548 34.3457 4.39548 29.3575 6.86023 26.2765L15.6395 15.2927C18.1042 12.2118 22.0948 12.2118 24.5595 15.2927C26.7426 18.0216 27.0243 22.3153 25.2324 25.455L25.1464 25.6115C24.3404 27.0199 24.6065 28.976 25.7254 29.9737C26.8443 30.9713 28.417 30.6486 29.2152 29.2499L29.3012 29.0934C32.525 23.4695 32.0164 15.7622 28.1041 10.8718C23.6832 5.3457 16.5236 5.3457 12.1027 10.8718L3.31568 21.8556Z" fill="#29536D"/>
</svg>
