<svg width="50" height="50" viewBox="0 0 50 50" fill="none" xmlns="http://www.w3.org/2000/svg">
<path d="M27.7778 3.12049C27.7778 2.1537 27.3872 1.24549 26.7101 0.659555C26.033 0.0736171 25.1562 -0.141227 24.3229 0.0931484L8.7066 4.48768C6.85764 5.00526 5.55556 6.88026 5.55556 9.0287V43.7455H2.77778C1.24132 43.7455 0 45.142 0 46.8705C0 48.599 1.24132 49.9955 2.77778 49.9955H8.33333H25H27.7778V46.8705V3.12049ZM22.2222 24.9955C22.2222 26.724 21.2934 28.1205 20.1389 28.1205C18.9844 28.1205 18.0556 26.724 18.0556 24.9955C18.0556 23.267 18.9844 21.8705 20.1389 21.8705C21.2934 21.8705 22.2222 23.267 22.2222 24.9955ZM30.5556 12.4955H38.8889V46.8705C38.8889 48.599 40.1302 49.9955 41.6667 49.9955H47.2222C48.7587 49.9955 50 48.599 50 46.8705C50 45.142 48.7587 43.7455 47.2222 43.7455H44.4444V12.4955C44.4444 9.04823 41.9531 6.24549 38.8889 6.24549H30.5556V12.4955Z" fill="#29536D"/>
</svg>
