<svg width="38" height="38" viewBox="0 0 38 38" fill="none" xmlns="http://www.w3.org/2000/svg">
<path d="M8.14286 2.375V4.75H4.07143C1.82366 4.75 0 6.3457 0 8.3125V11.875H38V8.3125C38 6.3457 36.1763 4.75 33.9286 4.75H29.8571V2.375C29.8571 1.06133 28.6442 0 27.1429 0C25.6415 0 24.4286 1.06133 24.4286 2.375V4.75H13.5714V2.375C13.5714 1.06133 12.3585 0 10.8571 0C9.3558 0 8.14286 1.06133 8.14286 2.375ZM38 14.25H0V34.4375C0 36.4043 1.82366 38 4.07143 38H33.9286C36.1763 38 38 36.4043 38 34.4375V14.25Z" fill="#29536D"/>
</svg>
