<svg width="38" height="38" viewBox="0 0 38 38" fill="none" xmlns="http://www.w3.org/2000/svg">
<path d="M21.1111 2.37179C21.1111 1.63696 20.8142 0.946659 20.2997 0.501307C19.7851 0.0559541 19.1188 -0.107342 18.4854 0.0707991L6.61701 3.41094C5.21181 3.80434 4.22222 5.22947 4.22222 6.86243V33.2496H2.11111C0.943403 33.2496 0 34.311 0 35.6248C0 36.9386 0.943403 38 2.11111 38H6.33333H19H21.1111V35.6248V2.37179ZM16.8889 18.9983C16.8889 20.3121 16.183 21.3735 15.3056 21.3735C14.4281 21.3735 13.7222 20.3121 13.7222 18.9983C13.7222 17.6845 14.4281 16.6231 15.3056 16.6231C16.183 16.6231 16.8889 17.6845 16.8889 18.9983ZM23.2222 9.49743H29.5556V35.6248C29.5556 36.9386 30.499 38 31.6667 38H35.8889C37.0566 38 38 36.9386 38 35.6248C38 34.311 37.0566 33.2496 35.8889 33.2496H33.7778V9.49743C33.7778 6.87727 31.8844 4.747 29.5556 4.747H23.2222V9.49743Z" fill="#29536D"/>
</svg>
