<svg width="38" height="38" viewBox="0 0 38 38" fill="none" xmlns="http://www.w3.org/2000/svg">
<path d="M37.99 18.9592C37.99 20.2949 37.0002 21.3411 35.8784 21.3411H33.7667L33.8129 33.2287C33.8129 33.429 33.7997 33.6294 33.7799 33.8297V35.0318C33.7799 36.6717 32.5987 38 31.1403 38H30.0845C30.0119 38 29.9393 38 29.8668 37.9926C29.7744 38 29.682 38 29.5896 38L27.4449 37.9926H25.8612C24.4028 37.9926 23.2216 36.6643 23.2216 35.0244V33.2435V28.4944C23.2216 27.181 22.278 26.1199 21.11 26.1199H16.8867C15.7186 26.1199 14.775 27.181 14.775 28.4944V33.2435V35.0244C14.775 36.6643 13.5938 37.9926 12.1354 37.9926H10.5517H8.44663C8.34765 37.9926 8.24866 37.9852 8.14968 37.9777C8.07049 37.9852 7.9913 37.9926 7.91212 37.9926H6.85629C5.39792 37.9926 4.21672 36.6643 4.21672 35.0244V26.7135C4.21672 26.6467 4.21672 26.5725 4.22331 26.5058V21.3337H2.11166C0.92385 21.3337 0 20.2949 0 18.9518C0 18.2839 0.197968 17.6903 0.659893 17.1709L17.5729 0.593634C18.0349 0.0742043 18.5628 0 19.0247 0C19.4866 0 20.0146 0.148409 20.4105 0.51943L37.2642 17.1783C37.7921 17.6977 38.056 18.2913 37.99 18.9592Z" fill="#29536D"/>
</svg>
