<svg width="38" height="38" viewBox="0 0 38 38" fill="none" xmlns="http://www.w3.org/2000/svg">
<path d="M35.3356 19.9453C38.8881 15.3803 38.8881 7.98727 35.3356 3.4222C32.1917 -0.617684 27.2369 -1.14287 23.6215 2.17792L23.5209 2.26679C22.6155 3.09901 22.408 4.71496 23.0556 5.87037C23.7032 7.02578 24.9608 7.30049 25.8599 6.46828L25.9605 6.3794C27.9789 4.52913 30.7392 4.82 32.4872 7.07426C34.4679 9.61939 34.4679 13.7401 32.4872 16.2852L25.4324 25.3669C23.4517 27.912 20.245 27.912 18.2643 25.3669C16.5101 23.1126 16.2837 19.5656 17.7236 16.9801L17.7928 16.8508C18.4404 15.6873 18.2266 14.0713 17.3275 13.2472C16.4283 12.4231 15.1645 12.6897 14.5231 13.8451L14.454 13.9744C11.8634 18.6122 12.2721 24.979 15.416 29.0189C18.9686 33.584 24.7218 33.584 28.2744 29.0189L35.3356 19.9453ZM2.66443 18.0547C-0.888144 22.6197 -0.888144 30.0127 2.66443 34.5778C5.80831 38.6177 10.7631 39.1429 14.3785 35.8221L14.4791 35.7332C15.3845 34.901 15.592 33.285 14.9444 32.1296C14.2968 30.9742 13.0392 30.6995 12.1401 31.5317L12.0395 31.6206C10.0211 33.4709 7.26078 33.18 5.51278 30.9257C3.53214 28.3725 3.53214 24.2519 5.51278 21.7067L12.5676 12.6331C14.5483 10.088 17.755 10.088 19.7357 12.6331C21.49 14.8874 21.7163 18.4344 20.2764 21.028L20.2072 21.1573C19.5596 22.3208 19.7734 23.9367 20.6725 24.7609C21.5717 25.585 22.8355 25.3184 23.4769 24.163L23.546 24.0337C26.1366 19.3878 25.7279 13.021 22.584 8.98108C19.0314 4.41601 13.2782 4.41601 9.72557 8.98108L2.66443 18.0547Z" fill="#29536D"/>
</svg>
