<svg width="40" height="35" viewBox="0 0 40 35" fill="none" xmlns="http://www.w3.org/2000/svg">
<path d="M0 3.75C0 1.67969 1.91964 0 4.28571 0H12.8571C15.2232 0 17.1429 1.67969 17.1429 3.75V11.25C17.1429 13.3203 15.2232 15 12.8571 15H4.28571C1.91964 15 0 13.3203 0 11.25V3.75ZM5.71429 5V10H11.4286V5H5.71429ZM0 23.75C0 21.6797 1.91964 20 4.28571 20H12.8571C15.2232 20 17.1429 21.6797 17.1429 23.75V31.25C17.1429 33.3203 15.2232 35 12.8571 35H4.28571C1.91964 35 0 33.3203 0 31.25V23.75ZM5.71429 25V30H11.4286V25H5.71429ZM27.1429 0H35.7143C38.0804 0 40 1.67969 40 3.75V11.25C40 13.3203 38.0804 15 35.7143 15H27.1429C24.7768 15 22.8571 13.3203 22.8571 11.25V3.75C22.8571 1.67969 24.7768 0 27.1429 0ZM34.2857 5H28.5714V10H34.2857V5ZM22.8571 21.25C22.8571 20.5625 23.5 20 24.2857 20H30C30.7857 20 31.4286 20.5625 31.4286 21.25C31.4286 21.9375 32.0714 22.5 32.8571 22.5H35.7143C36.5 22.5 37.1429 21.9375 37.1429 21.25C37.1429 20.5625 37.7857 20 38.5714 20C39.3571 20 40 20.5625 40 21.25V28.75C40 29.4375 39.3571 30 38.5714 30H32.8571C32.0714 30 31.4286 29.4375 31.4286 28.75C31.4286 28.0625 30.7857 27.5 30 27.5C29.2143 27.5 28.5714 28.0625 28.5714 28.75V33.75C28.5714 34.4375 27.9286 35 27.1429 35H24.2857C23.5 35 22.8571 34.4375 22.8571 33.75V21.25ZM32.8571 35C32.4783 35 32.1149 34.8683 31.847 34.6339C31.5791 34.3995 31.4286 34.0815 31.4286 33.75C31.4286 33.4185 31.5791 33.1005 31.847 32.8661C32.1149 32.6317 32.4783 32.5 32.8571 32.5C33.236 32.5 33.5994 32.6317 33.8673 32.8661C34.1352 33.1005 34.2857 33.4185 34.2857 33.75C34.2857 34.0815 34.1352 34.3995 33.8673 34.6339C33.5994 34.8683 33.236 35 32.8571 35ZM38.5714 35C38.1926 35 37.8292 34.8683 37.5613 34.6339C37.2934 34.3995 37.1429 34.0815 37.1429 33.75C37.1429 33.4185 37.2934 33.1005 37.5613 32.8661C37.8292 32.6317 38.1926 32.5 38.5714 32.5C38.9503 32.5 39.3137 32.6317 39.5816 32.8661C39.8495 33.1005 40 33.4185 40 33.75C40 34.0815 39.8495 34.3995 39.5816 34.6339C39.3137 34.8683 38.9503 35 38.5714 35Z" fill="#3B3F3D"/>
</svg>
